ply
format ascii 1.0
comment Generated by PDAL
element vertex 5
property float64 x
property float64 y
property float64 z
property uint16 intensity
property uint8 returnnumber
property uint8 numberofreturns
property uint8 scandirectionflag
property uint8 edgeofflightline
property uint8 classification
property uint8 synthetic
property uint8 keypoint
property uint8 withheld
property uint8 overlap
property float32 scananglerank
property uint8 userdata
property uint16 pointsourceid
property float64 gpstime
property uint8 scanchannel
property uint16 red
property uint16 green
property uint16 blue
end_header
-147.207 83.9508 -0.0673321 0 0 0 0 0 0 0 0 0 0 0 0 0 0 0 0 255 0
-144.771 83.0171 -0.271249 0 0 0 0 0 0 0 0 0 0 0 0 0 0 0 0 255 0
-147.912 83.8841 -0.136015 0 0 0 0 0 0 0 0 0 0 0 0 0 0 0 255 0 0
-145.648 83.3395 -0.257025 0 0 0 0 0 0 0 0 0 0 0 0 0 0 0 255 0 0
-145.617 82.9838 -0.3033 0 0 0 0 0 0 0 0 0 0 0 0 0 0 0 255 0 0
